<svg width="39" height="46" viewBox="0 0 39 46" fill="none" xmlns="http://www.w3.org/2000/svg">
<path d="M27.3125 46H10.7812C4.83646 46 0 41.1635 0 35.2188V10.7812C0 4.83646 4.83646 0 10.7812 0H27.3125C33.2573 0 38.0937 4.83646 38.0937 10.7812V35.2188C38.0937 41.1635 33.2573 46 27.3125 46ZM10.7812 3.59374C6.81803 3.59374 3.59374 6.81803 3.59374 10.7812V35.2188C3.59374 39.182 6.81803 42.4063 10.7812 42.4063H27.3125C31.2757 42.4063 34.5 39.182 34.5 35.2188V10.7812C34.5 6.81803 31.2757 3.59374 27.3125 3.59374H10.7812ZM30.8164 16.5313C30.8164 15.5389 30.0119 14.7344 29.0195 14.7344H25.9648C24.4785 14.7344 23.2694 13.5252 23.2694 12.039V8.98432C23.2694 7.9919 22.4649 7.1874 21.4725 7.1874C20.4801 7.1874 19.6756 7.9919 19.6756 8.98432V12.039C19.6756 15.5068 22.4969 18.3281 25.9647 18.3281H29.0194C30.012 18.3281 30.8164 17.5237 30.8164 16.5313ZM26.8689 32.0396L25.8496 31.4464C26.0346 30.8188 26.1356 30.1555 26.1356 29.4688C26.1356 28.783 26.0349 28.1207 25.8504 27.494L26.8725 26.8958C27.7289 26.3946 28.0169 25.2939 27.5156 24.4374C27.0144 23.581 25.9137 23.2931 25.0572 23.7943L23.9831 24.423C23.1381 23.6096 22.0911 23.0055 20.9247 22.6958V21.383C20.9247 20.3906 20.1202 19.5861 19.1278 19.5861C18.1354 19.5861 17.3309 20.3906 17.3309 21.383V22.6957C16.1362 23.0129 15.0661 23.6383 14.2108 24.4816L13.0365 23.7942C12.1801 23.2929 11.0794 23.5808 10.5781 24.4374C10.0769 25.2938 10.3648 26.3945 11.2213 26.8957L12.382 27.5751C12.2126 28.178 12.1199 28.8127 12.1199 29.4689C12.1199 30.1263 12.2129 30.762 12.3829 31.3658L11.2249 32.0398C10.3672 32.539 10.0767 33.6391 10.5758 34.4967C10.9096 35.0701 11.5116 35.3899 12.1305 35.3899C12.4374 35.3899 12.7484 35.3112 13.0327 35.1457L14.2132 34.4586C15.0681 35.3006 16.1372 35.9251 17.3308 36.2421V37.5548C17.3308 38.5472 18.1353 39.3517 19.1277 39.3517C20.1201 39.3517 20.9246 38.5472 20.9246 37.5548V36.2421C22.09 35.9327 23.1363 35.3292 23.9808 34.5171L25.0608 35.1457C25.3452 35.3112 25.6562 35.3899 25.9631 35.3899C26.5819 35.3899 27.184 35.07 27.5178 34.4967C28.0171 33.6388 27.7264 32.5389 26.8689 32.0396ZM19.1277 32.8828C17.2452 32.8828 15.7136 31.3513 15.7136 29.4687C15.7136 27.5862 17.2451 26.0546 19.1277 26.0546C21.0102 26.0546 22.5418 27.5862 22.5418 29.4687C22.5418 31.3512 21.0103 32.8828 19.1277 32.8828Z" fill="white"/>
</svg>
