<svg width="45" height="45" viewBox="0 0 45 45" fill="none" xmlns="http://www.w3.org/2000/svg">
<path d="M3.51561 10.2445V15.4687C3.51561 16.4396 4.30262 17.2266 5.27346 17.2266C6.2443 17.2266 7.03131 16.4396 7.03131 15.4687V10.2445C8.52702 9.71398 9.71406 8.52702 10.2446 7.03122H15.5566C16.5275 7.03122 17.3145 6.24422 17.3145 5.27338C17.3145 4.30253 16.5275 3.51553 15.5566 3.51553H10.2445C9.51876 1.46966 7.56503 0 5.27346 0C2.36566 0 0 2.36566 0 5.27346C0 7.56503 1.46966 9.51876 3.51561 10.2445ZM5.27346 3.51561C6.2427 3.51561 7.03131 4.30414 7.03131 5.27346C7.03131 6.24278 6.24278 7.03131 5.27346 7.03131C4.30414 7.03131 3.51561 6.24278 3.51561 5.27346C3.51561 4.30414 4.30414 3.51561 5.27346 3.51561ZM29.3554 7.03122H34.7554C35.2859 8.52693 36.4729 9.71398 37.9687 10.2445V15.4687C37.9687 16.4396 38.7557 17.2266 39.7265 17.2266C40.6974 17.2266 41.4844 16.4396 41.4844 15.4687V10.2445C43.5303 9.51885 45 7.56494 45 5.27338C44.9999 2.36566 42.6342 0 39.7264 0C37.4349 0 35.4811 1.46966 34.7553 3.51561H29.3553C28.3845 3.51561 27.5975 4.30262 27.5975 5.27346C27.5975 6.2443 28.3846 7.03122 29.3554 7.03122ZM39.7264 3.51561C40.6957 3.51561 41.4843 4.30414 41.4843 5.27346C41.4843 6.24278 40.6958 7.03131 39.7264 7.03131C38.7572 7.03131 37.9686 6.24278 37.9686 5.27346C37.9686 4.30414 38.7572 3.51561 39.7264 3.51561ZM32.3529 15.6603L25.2254 22.7503L32.2889 29.8757C32.9724 30.5652 32.9676 31.6782 32.2781 32.3616C31.9354 32.7013 31.4879 32.871 31.0405 32.871C30.5881 32.871 30.1358 32.6975 29.7921 32.3507L22.7328 25.2296L15.6536 32.2716C15.3106 32.6127 14.8622 32.7831 14.4139 32.7831C13.9625 32.7831 13.5112 32.6103 13.1676 32.2649C12.483 31.5766 12.4859 30.4637 13.1741 29.7791L20.2578 22.7328L13.2382 15.6516C12.5548 14.9621 12.5596 13.8492 13.2491 13.1658C13.9385 12.4824 15.0514 12.4871 15.7349 13.1767L22.7502 20.2536L29.8734 13.1679C30.5618 12.4833 31.6747 12.4862 32.3592 13.1745C33.0441 13.8627 33.0411 14.9756 32.3529 15.6603ZM41.4843 34.7554V29.3554C41.4843 28.3846 40.6973 27.5976 39.7264 27.5976C38.7556 27.5976 37.9686 28.3846 37.9686 29.3554V34.7554C36.4729 35.2859 35.2858 36.4729 34.7553 37.9687H29.5311C28.5603 37.9687 27.7732 38.7557 27.7732 39.7265C27.7732 40.6974 28.5603 41.4844 29.5311 41.4844H34.7553C35.481 43.5303 37.4349 45 39.7264 45C42.6342 45 44.9999 42.6343 44.9999 39.7265C44.9999 37.4349 43.5302 35.4811 41.4843 34.7554ZM39.7264 41.4843C38.7572 41.4843 37.9686 40.6958 37.9686 39.7264C37.9686 38.7571 38.7571 37.9686 39.7264 37.9686C40.6957 37.9686 41.4843 38.7571 41.4843 39.7264C41.4843 40.6958 40.6957 41.4843 39.7264 41.4843ZM15.5566 37.9687H10.2445C9.71398 36.473 8.52702 35.2859 7.03122 34.7554V29.4433C7.03122 28.4725 6.24422 27.6855 5.27338 27.6855C4.30253 27.6855 3.51553 28.4725 3.51553 29.4433V34.7554C1.46966 35.4811 0 37.4349 0 39.7264C0 42.6342 2.36566 44.9999 5.27346 44.9999C7.56503 44.9999 9.51885 43.5302 10.2446 41.4843H15.5566C16.5275 41.4843 17.3145 40.6973 17.3145 39.7264C17.3145 38.7556 16.5275 37.9687 15.5566 37.9687ZM5.27346 41.4843C4.30422 41.4843 3.51561 40.6958 3.51561 39.7264C3.51561 38.7571 4.30414 37.9686 5.27346 37.9686C6.24278 37.9686 7.03131 38.7571 7.03131 39.7264C7.03131 40.6958 6.2427 41.4843 5.27346 41.4843ZM24.6093 5.27346C24.6093 6.48697 23.6255 7.47071 22.412 7.47071C21.1985 7.47071 20.2148 6.48697 20.2148 5.27346C20.2148 4.05995 21.1985 3.07621 22.412 3.07621C23.6255 3.07613 24.6093 4.05995 24.6093 5.27346ZM22.412 37.5292C21.1985 37.5292 20.2148 38.5129 20.2148 39.7264C20.2148 40.94 21.1985 41.9237 22.412 41.9237C23.6255 41.9237 24.6093 40.94 24.6093 39.7264C24.6093 38.5129 23.6255 37.5292 22.412 37.5292ZM39.7264 20.4784C38.5129 20.4784 37.5292 21.4622 37.5292 22.6757C37.5292 23.8892 38.5129 24.8729 39.7264 24.8729C40.94 24.8729 41.9237 23.8892 41.9237 22.6757C41.9237 21.4622 40.94 20.4784 39.7264 20.4784ZM5.27346 20.4784C4.05995 20.4784 3.07621 21.4622 3.07621 22.6757C3.07621 23.8892 4.05995 24.8729 5.27346 24.8729C6.48697 24.8729 7.47071 23.8892 7.47071 22.6757C7.47071 21.4622 6.48697 20.4784 5.27346 20.4784Z" fill="white"/>
</svg>
