<svg width="45" height="46" viewBox="0 0 45 46" fill="none" xmlns="http://www.w3.org/2000/svg">
<path d="M27.9126 37.8767C27.4638 37.8767 27.0149 37.7022 26.6719 37.3527L4.93854 15.2122C2.9531 13.1826 1.61401 10.6248 1.06432 7.81303C1.06272 7.8051 1.06129 7.79718 1.05986 7.78925L0.0296711 2.12521C-0.0762721 1.54323 0.105188 0.945054 0.514886 0.526338C0.924415 0.107794 1.5095 -0.0780434 2.079 0.0303403L7.61991 1.08351C7.62766 1.08506 7.63542 1.08643 7.64309 1.08807C10.3936 1.65006 12.896 3.01873 14.8793 5.04632L36.6106 27.1845C37.2982 27.8849 37.3001 29.0225 36.6149 29.7254C35.9296 30.4281 34.8167 30.4301 34.1292 29.7297L12.3958 7.58937C10.9054 6.06597 9.02852 5.03813 6.96528 4.61416L3.95378 4.04183L4.51359 7.11991C4.92826 9.22917 5.93383 11.1478 7.42218 12.6692L29.1533 34.8075C29.8409 35.508 29.8428 36.6456 29.1576 37.3484C28.8143 37.7005 28.3635 37.8767 27.9126 37.8767ZM12.0023 43.8984L18.7686 36.9801C19.455 36.2783 19.4549 35.1407 18.7683 34.4392C18.0819 33.7376 16.969 33.7377 16.2826 34.4395L9.5166 41.3576C8.146 42.7587 5.91571 42.7587 4.54519 41.3576C3.88122 40.6789 3.51551 39.7765 3.51551 38.8167C3.51551 37.8569 3.88122 36.9544 4.54536 36.2755L11.2676 29.4022C11.954 28.7004 11.9538 27.5628 11.2673 26.8613C10.5808 26.1598 9.46789 26.1598 8.78149 26.8616L2.05945 33.7347C0.731492 35.092 8.79443e-05 36.8969 8.79443e-05 38.8166C8.79443e-05 40.7363 0.731408 42.5411 2.05936 43.8986C3.42997 45.2996 5.23033 46.0001 7.03077 46.0001C8.83113 46 10.6317 45.2995 12.0023 43.8984ZM36.1016 19.2577L40.0602 15.2101C42.0435 13.1827 43.3826 10.6247 43.9325 7.81294C43.9341 7.80502 43.9355 7.79709 43.9369 7.78916L44.967 2.12521C45.0729 1.54315 44.8914 0.945054 44.4818 0.526338C44.0723 0.107708 43.4874 -0.0779572 42.9177 0.0303403L37.3768 1.08359C37.369 1.08514 37.3613 1.08652 37.3536 1.08816C34.6031 1.65015 32.1007 3.01882 30.1172 5.04657L26.2244 9.02696C25.538 9.72878 25.5381 10.8665 26.2247 11.5679C26.9113 12.2695 28.0241 12.2694 28.7104 11.5676L32.603 7.58739C34.0913 6.06588 35.9683 5.03813 38.0316 4.61416L41.0428 4.04191L40.4829 7.12034C40.0682 9.22951 39.0626 11.1481 37.5743 12.6694L33.6155 16.7172C32.9291 17.419 32.9293 18.5567 33.6159 19.2581C33.9591 19.6088 34.4087 19.7842 34.8585 19.7842C35.3084 19.7841 35.7583 19.6087 36.1016 19.2577ZM42.9373 43.8986C44.2652 42.5411 44.9965 40.7363 44.9965 38.8166C44.9965 36.907 44.2728 35.111 42.9581 33.756L41.6198 32.2995C40.9554 31.5762 39.8429 31.5405 39.1354 32.2197C38.4277 32.8991 38.3928 34.0361 39.0574 34.7595L40.4131 36.2351C40.4256 36.2488 40.4384 36.2624 40.4515 36.2756C41.1155 36.9544 41.4812 37.8567 41.4812 38.8165C41.4812 39.7764 41.1155 40.6788 40.4515 41.3574C39.0867 42.7525 36.8698 42.7585 35.4977 41.3753L34.1628 39.9222C33.4982 39.1989 32.3859 39.1632 31.6782 39.8424C30.9706 40.5217 30.9357 41.6588 31.6002 42.3822L32.9559 43.8579C32.9686 43.8716 32.9813 43.8851 32.9944 43.8984C34.365 45.2995 36.1654 46.0001 37.9658 46.0001C39.7661 46.0002 41.5667 45.2996 42.9373 43.8986Z" fill="white"/>
</svg>
